<svg xmlns="http://www.w3.org/2000/svg" width="82.204" height="98.537" viewBox="0 0 82.204 98.537">
  <g id="book" transform="translate(-1.088 -1.088)">
    <path id="Path_10" data-name="Path 10" d="M1.7,75.927A15,15,0,0,0,14.9,92.527l57.5,6.544L82.738,8.24,25.241,1.7A15,15,0,0,0,8.641,14.9Z" fill="#8e8d99" stroke="#707070" stroke-width="1"/>
    <path id="Path_11" data-name="Path 11" d="M16.459,16.441a7.336,7.336,0,0,0,6.459,8.118l57.176,6.507,1.659-14.578L24.577,9.982A7.336,7.336,0,0,0,16.459,16.441Z" fill="snow" stroke="#707070" stroke-width="1"/>
    <path id="Path_12" data-name="Path 12" d="M16.459,16.441a7.336,7.336,0,0,0,6.459,8.118l57.176,6.507,1.659-14.578L24.577,9.982A7.336,7.336,0,0,0,16.459,16.441Z" fill="none"/>
  </g>
</svg>
