<svg xmlns="http://www.w3.org/2000/svg" width="100" height="105.318" viewBox="0 0 100 105.318">
  <g id="frypan" transform="translate(-0.001)">
    <rect id="Rectangle_19" data-name="Rectangle 19" width="11.212" height="13.326" transform="matrix(0.826, 0.564, -0.564, 0.826, 29.896, 58.56)" fill="#aaa8b9"/>
    <rect id="Rectangle_20" data-name="Rectangle 20" width="16.599" height="37.121" rx="8.299" transform="matrix(0.813, 0.582, -0.582, 0.813, 21.607, 65.472)" fill="#fa7902"/>
    <ellipse id="Ellipse_8" data-name="Ellipse 8" cx="35.5" cy="35" rx="35.5" ry="35" transform="translate(18)" fill="#8e8d99"/>
    <ellipse id="Ellipse_9" data-name="Ellipse 9" cx="31.5" cy="32" rx="31.5" ry="32" transform="translate(22 3)" fill="#9696a8"/>
    <circle id="Ellipse_10" data-name="Ellipse 10" cx="25.5" cy="25.5" r="25.5" transform="translate(28 10)" fill="#aaa8b9"/>
    <rect id="Rectangle_21" data-name="Rectangle 21" width="7.343" height="32.551" transform="matrix(0.865, -0.502, 0.502, 0.865, 62.752, 54.603)" fill="#fffbfb"/>
    <path id="Path_13" data-name="Path 13" d="M43.323,49.626A17.065,17.065,0,1,1,72.745,32.815l.559,1.323A16.893,16.893,0,0,1,44.179,50.779Z" fill="#fffbfb"/>
    <path id="Path_14" data-name="Path 14" d="M42.523,38.774a1.962,1.962,0,0,1,3.133-2.364L56.4,50.5a2.049,2.049,0,1,1-3.271,2.468Z" fill="#c4c4c4"/>
    <path id="Path_15" data-name="Path 15" d="M51.235,32.935A1.983,1.983,0,0,1,54.7,31l8.7,15.387a2.071,2.071,0,1,1-3.615,2.02Z" fill="#c4c4c4"/>
    <path id="Path_16" data-name="Path 16" d="M60.419,27.72a1.983,1.983,0,0,1,3.744-1.308L70.076,43.07a2.071,2.071,0,1,1-3.91,1.366Z" fill="#c4c4c4"/>
    <rect id="Rectangle_22" data-name="Rectangle 22" width="16.857" height="33.29" rx="8.429" transform="matrix(0.865, -0.502, 0.502, 0.865, 68.706, 75.739)" fill="#fa7902"/>
  </g>
</svg>
