<svg xmlns="http://www.w3.org/2000/svg" width="56.299" height="58.199" viewBox="0 0 56.299 58.199">
  <g id="icon-_spatula" data-name="icon- spatula" transform="translate(-1331.141 -438.991) rotate(-13)">
    <rect id="Rectangle_11" data-name="Rectangle 11" width="5.506" height="24.409" transform="matrix(0.865, -0.502, 0.502, 0.865, 1214.05, 757.043)" fill="#fffbfb"/>
    <path id="Path_5" data-name="Path 5" d="M42.481,42.811A12.8,12.8,0,1,1,64.543,30.2l.419.992A12.667,12.667,0,0,1,43.123,43.675Z" transform="translate(1157 710.5)" fill="#fffbfb"/>
    <path id="Path_6" data-name="Path 6" d="M42.426,37.989a1.471,1.471,0,0,1,2.349-1.772l8.053,10.566a1.536,1.536,0,1,1-2.453,1.851Z" transform="translate(1156.455 707.184)" fill="#c4c4c4"/>
    <path id="Path_7" data-name="Path 7" d="M51.173,32.2a1.487,1.487,0,0,1,2.6-1.451l6.524,11.538A1.553,1.553,0,1,1,57.582,43.8Z" transform="translate(1154.24 708.596)" fill="#c4c4c4"/>
    <path id="Path_8" data-name="Path 8" d="M60.391,27.062a1.487,1.487,0,0,1,2.808-.981l4.434,12.491A1.553,1.553,0,1,1,64.7,39.6Z" transform="translate(1151.908 709.822)" fill="#c4c4c4"/>
    <rect id="Rectangle_12" data-name="Rectangle 12" width="12.641" height="24.962" rx="6.32" transform="matrix(0.865, -0.502, 0.502, 0.865, 1218.514, 772.892)" fill="#fa7902"/>
  </g>
</svg>
